<?xml version="1.0" encoding="UTF-8" standalone="no"?>
<svg
   width="139.32005"
   height="132.00592"
   viewBox="0 0 139.32005 132.00592"
   fill="none"
   version="1.1"
   id="svg2"
   xmlns="http://www.w3.org/2000/svg"
   xmlns:svg="http://www.w3.org/2000/svg">
  <defs
     id="defs2">
    <linearGradient
       x1="24.285238"
       y1="103.42535"
       x2="99.182992"
       y2="44.950572"
       id="linearGradient-1"
       gradientTransform="scale(1.0273303,0.97339675)"
       gradientUnits="userSpaceOnUse">
      <stop
         stop-color="#0397A7"
         offset="0.044188%"
         id="stop1" />
      <stop
         stop-color="#00ECCD"
         offset="99.71%"
         id="stop2" />
    </linearGradient>
  </defs>
  <g
     id="Group"
     transform="translate(-0.90202603,-0.93777818)">
    <path
       d="M 137.53815,50.367746 100.61754,5.3080763 C 97.904518,2.0052733 93.776014,0.471829 89.647511,1.0616153 L 31.848458,10.380238 c -4.128504,0.707744 -7.667222,3.42076 -9.200666,7.431307 L 1.6514015,72.07188 c -1.415487,3.89259 -0.82570075,8.374965 1.7693588,11.559811 L 40.34138,128.5734 c 2.713017,3.30281 6.84152,4.83625 10.970024,4.24646 l 57.917006,-9.20066 c 4.12851,-0.70774 7.66723,-3.42076 9.20067,-7.43131 l 20.99639,-54.260333 c 1.53344,-3.89259 0.8257,-8.257008 -1.88732,-11.559811 z"
       id="Path"
       fill="url(#linearGradient-1)"
       style="fill:url(#linearGradient-1)" />
    <polygon
       id="polygon2"
       fill="#ffffff"
       points="60.51207,36.448791 44.469884,40.695251 24.771023,92.124613 42.346653,92.124613 54.378293,61.809599 66.05606,90.591169 75.020811,90.591169 92.360527,59.686369 92.360527,99.320005 108.87454,93.658057 108.87454,44.823755 86.344707,40.813209 73.36941,63.93283 " />
  </g>
</svg>
