<?xml version="1.0" encoding="UTF-8" standalone="no"?>
<svg
   width="153"
   height="40"
   viewBox="0 0 153 40"
   fill="none"
   version="1.1"
   id="svg1"
   xmlns="http://www.w3.org/2000/svg"
   xmlns:svg="http://www.w3.org/2000/svg">
  <defs
     id="defs1" />
  <path
     fill-rule="evenodd"
     clip-rule="evenodd"
     d="M39.4038 20.9156C43.2569 20.9156 46.391 23.9479 46.391 27.6744C46.391 31.4015 43.2569 34.4338 39.4038 34.4338C35.5507 34.4338 32.4159 31.4015 32.4159 27.6744C32.4159 23.9479 35.5507 20.9156 39.4038 20.9156ZM106.894 20.9156C107.714 20.9156 108.517 21.0533 109.27 21.3162L100.562 30.5326C100.141 29.6644 99.9057 28.6956 99.9057 27.6744C99.9057 23.9479 103.04 20.9156 106.894 20.9156ZM12.7415 40C16.2586 40 19.5328 38.6446 21.9616 36.182L21.549 35.7745L21.9825 36.1561L27.0778 30.7437C28.4935 36.0576 33.4746 40 39.4038 40C43.1391 40 46.4943 38.4272 48.827 35.9422L48.8407 35.9541L61.6414 22.3528C63.3743 20.5333 66.3125 20.4047 68.2066 22.0711C70.0992 23.7368 70.2444 26.5748 68.5397 28.4146L67.5678 29.4484L57.9603 39.6526H65.7431L69.0896 36.0981V36.0988L70.7358 34.3492L72.7722 32.1865L72.7744 32.1872C72.783 32.1781 72.7903 32.1669 72.7996 32.1578L81.9258 22.4632C82.759 21.6063 83.8812 21.1023 85.0989 21.047C86.3404 20.9897 87.5342 21.4049 88.4555 22.2158C90.3329 23.8676 90.489 26.6713 88.8291 28.5132L78.3408 39.6526H86.1279L89.546 36.0233L89.5431 36.0212L93.0197 32.3284L93.0233 32.3319C93.0443 32.3088 93.0616 32.2843 93.0825 32.2613L94.5553 30.6976C95.9536 36.0338 100.947 40 106.894 40C110.411 40 113.685 38.6439 116.113 36.182L115.424 35.5033L116.155 36.1338L121.205 30.6507C122.586 36.0107 127.592 40 133.555 40V34.4338C129.702 34.4338 126.567 31.4015 126.567 27.6744V20.6906H133.555V15.1243H126.567V5.59264H120.813V22.7072L111.863 32.4262C110.54 33.7222 108.78 34.4338 106.894 34.4338C106.211 34.4338 105.552 34.3387 104.928 34.1619L117.719 20.6241L115.675 18.7445C113.296 16.5552 110.177 15.3494 106.894 15.3494C103.047 15.3494 99.6014 17.0131 97.263 19.6281L97.2254 19.5945L95.0257 21.9306C94.4628 20.5102 93.5682 19.1905 92.3281 18.0986C90.2708 16.2875 87.6035 15.3634 84.8272 15.4864C82.264 15.6039 79.893 16.6146 78.0698 18.3307L78.059 18.3209L78.0691 18.3314C78.0062 18.3908 77.9441 18.4509 77.8827 18.5117L77.8718 18.502L77.7193 18.6648L77.7179 18.6634L77.6449 18.7403C77.6355 18.7508 77.6239 18.7599 77.6138 18.7704L77.616 18.7718L74.7833 21.7817C74.2088 20.3362 73.2975 19.0262 72.0792 17.9546C70.0211 16.1428 67.3575 15.2166 64.5782 15.3424C61.8503 15.4669 59.3355 16.5978 57.4726 18.5222L57.469 18.5187L57.3945 18.5977C57.3851 18.6082 57.3743 18.6159 57.3649 18.6264L57.3663 18.6278L51.732 24.6148C50.3192 19.2967 45.3359 15.3494 39.4038 15.3494C35.5146 15.3494 32.0322 17.048 29.6931 19.7133L29.6858 19.707L25.1224 24.554L25.1217 24.5533L20.327 29.6463C20.327 29.6463 20.327 29.647 20.3277 29.6477L17.7277 32.4088L17.7284 32.4095C16.4038 33.7159 14.637 34.4338 12.7415 34.4338C8.8884 34.4338 5.75434 31.4015 5.75434 27.6744C5.75434 23.9479 8.8884 20.9156 12.7415 20.9156C15.4355 20.9156 17.9184 22.4395 19.0674 24.7986C19.0906 24.8462 19.1231 24.9161 19.1549 24.986L23.2175 20.6703C20.861 17.3884 16.9451 15.3494 12.7415 15.3494C5.71604 15.3494 0 20.8786 0 27.6744C0 34.4708 5.71604 40 12.7415 40ZM145.774 4.62675C146.418 5.56342 147.249 6.36798 148.218 6.9901C147.249 7.61222 146.418 8.41678 145.774 9.35415C145.131 8.41678 144.299 7.61222 143.33 6.9901C144.299 6.36798 145.131 5.56342 145.774 4.62675ZM144.328 13.9802H147.219C147.219 10.8969 149.812 8.38812 153 8.38812V5.59208C149.812 5.59208 147.219 3.08333 147.219 0H144.328C144.328 3.08333 141.735 5.59208 138.547 5.59208V8.38812C141.735 8.38812 144.328 10.8969 144.328 13.9802Z"
     fill="#1E1E1E"
     id="path1" />
</svg>
